<svg xmlns="http://www.w3.org/2000/svg" viewBox="0 0 500 500"><g id="freepik--Sky--inject-2"><circle cx="190.54" cy="62.57" r="16.1" style="fill:#7BAFFF;opacity:0.05"></circle><circle cx="190.54" cy="62.57" r="21.46" style="fill:#7BAFFF;opacity:0.05"></circle><circle cx="190.54" cy="62.57" r="10.66" style="fill:#7BAFFF"></circle><circle cx="190.54" cy="62.57" r="10.66" style="fill:#fff;opacity:0.8"></circle><path d="M163,104a8.82,8.82,0,0,0-6.59-7.12A11.57,11.57,0,0,0,141.32,90a15.77,15.77,0,0,0-28.48-.36A11.57,11.57,0,0,0,99,96.19a8.81,8.81,0,0,0-13.65,7.37,8.69,8.69,0,0,0,.59,3.15C78.69,108.58,72.42,112,75.37,115h96.69C176,107.48,169.13,105,163,104Z" style="fill:#7BAFFF"></path><path d="M163,104a8.82,8.82,0,0,0-6.59-7.12A11.57,11.57,0,0,0,141.32,90a15.77,15.77,0,0,0-28.48-.36A11.57,11.57,0,0,0,99,96.19a8.81,8.81,0,0,0-13.65,7.37,8.69,8.69,0,0,0,.59,3.15C78.69,108.58,72.42,112,75.37,115h96.69C176,107.48,169.13,105,163,104Z" style="fill:#fff;opacity:0.7000000000000001"></path><path d="M334,69.86A2.81,2.81,0,0,1,336,67.62a3.65,3.65,0,0,1,4.76-2.16,5,5,0,0,1,9-.11,3.53,3.53,0,0,1,1-.14,3.64,3.64,0,0,1,3.35,2.21,2.78,2.78,0,0,1,4.3,2.32,2.9,2.9,0,0,1-.18,1c2.29.59,4.27,1.68,3.34,2.6H331.11C329.87,71,332,70.19,334,69.86Z" style="fill:#7BAFFF"></path><path d="M334,69.86A2.81,2.81,0,0,1,336,67.62a3.65,3.65,0,0,1,4.76-2.16,5,5,0,0,1,9-.11,3.53,3.53,0,0,1,1-.14,3.64,3.64,0,0,1,3.35,2.21,2.78,2.78,0,0,1,4.3,2.32,2.9,2.9,0,0,1-.18,1c2.29.59,4.27,1.68,3.34,2.6H331.11C329.87,71,332,70.19,334,69.86Z" style="fill:#fff;opacity:0.7000000000000001"></path><path d="M401.22,127.06a5,5,0,0,0-6.49-6,6.76,6.76,0,0,0-10-2.67,7.81,7.81,0,0,0-14.19,4.52c0,.09,0,.17,0,.26h-.2a3.78,3.78,0,0,0-3.78,3.78,3.86,3.86,0,0,0,.48,1.85c-2.34.83-4,2-2.92,3.05h41.51C407.43,128.44,403.94,127.45,401.22,127.06Z" style="fill:#7BAFFF"></path><path d="M401.22,127.06a5,5,0,0,0-6.49-6,6.76,6.76,0,0,0-10-2.67,7.81,7.81,0,0,0-14.19,4.52c0,.09,0,.17,0,.26h-.2a3.78,3.78,0,0,0-3.78,3.78,3.86,3.86,0,0,0,.48,1.85c-2.34.83-4,2-2.92,3.05h41.51C407.43,128.44,403.94,127.45,401.22,127.06Z" style="fill:#fff;opacity:0.7000000000000001"></path><path d="M313.65,42c-8.51-5.67-13.59-3.2-16-.93,4.43-.32,12.82.18,16,2.18,3.31-1.27,11.51.12,15.85,1.43C327.42,42,322.69,38.37,313.65,42Z" style="fill:#7BAFFF"></path><path d="M397.81,96.45c-5.88-3.92-9.4-2.21-11-.64,3.06-.22,8.87.12,11,1.51,2.3-.88,8,.08,11,1C407.34,96.39,404.07,93.91,397.81,96.45Z" style="fill:#7BAFFF"></path><path d="M131.29,141.46c-6.19-2.56-9.14-.33-10.37,1.43,2.8-.77,8.26-1.52,10.53-.63,2-1.23,7.41-1.38,10.37-1.09C140.13,139.65,136.63,138,131.29,141.46Z" style="fill:#7BAFFF"></path></g></svg>