<svg xmlns="http://www.w3.org/2000/svg" xmlns:xlink="http://www.w3.org/1999/xlink" viewBox="0 0 500 500"><defs><clipPath id="freepik--clip-path--inject-2"><path d="M215.59,261.89a69.8,69.8,0,0,1-28.28,5.95c4.93,23.46,11.39,55.67,11.39,63.46,0,12.59-2.46,19.35-3.07,37.78s7.43,77,9.27,78.2,5.83,1.23,7.68.61,2.15.31,2.76-1.84,8-44.16,10.13-88.69,5.48-77.66,18.68-86.87,54.47.41,54.78,7.16S281,339.9,282.24,341.13s8,3.07,9.52,2.46,30.4-47.3,39.62-63.27,7.67-23-3.08-33.17-50.06-12-66-15.05c-3.86-.74-6.93-1.41-9.39-2C250.24,233.63,239.24,251.45,215.59,261.89Z" style="fill:#263238;stroke:#263238;stroke-linecap:round;stroke-linejoin:round"></path></clipPath><clipPath id="freepik--clip-path-2--inject-2"><path d="M258.75,212.23c.79-1.85-2.45-7.65-3.25-9.18-6.95-13.22-26.78-13.53-35.5-2-3.16,4.2-4.86,9.61-9,12.83-8.86,6.88-21.5-1.51-31-2.58-20.67-2.33-34.83,17.56-34.28,36.49.51,17.63,11.71,34.73,27.68,42.21.81.38,1.62.73,2.45,1.05,18.72,7.39,36.65-1.6,47-17.75,3.09-4.84,5.77-9.94,8.91-14.76,1.65-2.54,3.77-4.93,6.58-6.07,5.57-2.25,12.71-.54,18.68-2.23,4.15-1.17,10.26-3.29,12.22-7.58,2.18-4.75-.6-4.89-4.59-4.65s-8.52-3.48-8.94-10.53S258.75,212.24,258.75,212.23Z" style="fill:#757575;stroke:#263238;stroke-linecap:round;stroke-linejoin:round"></path></clipPath></defs><g id="freepik--Music--inject-2"><path d="M445.05,178a.46.46,0,0,1-.27-.09c-27.42-18.46-63.36-21.71-105-25.47-27.12-2.45-57.84-5.23-91-12.58C165.17,121.34,118.39,60.3,117.93,59.68A.5.5,0,0,1,118,59a.51.51,0,0,1,.7.1c.47.61,47,61.37,130.28,79.81,33.13,7.34,63.82,10.11,90.91,12.56,41.74,3.78,77.8,7,105.42,25.64a.51.51,0,0,1,.14.7A.52.52,0,0,1,445.05,178Z" style="fill:#92E3A9"></path><path d="M430.75,193.36a.47.47,0,0,1-.28-.09c-27.42-18.46-63.35-21.71-105-25.47-27.12-2.45-57.84-5.23-91-12.59C150.86,136.69,104.08,75.65,103.62,75a.49.49,0,0,1,.1-.7.5.5,0,0,1,.7.1c.46.61,47,61.36,130.27,79.81,33.13,7.34,63.82,10.11,90.91,12.56,41.74,3.78,77.8,7,105.42,25.64a.51.51,0,0,1,.14.7A.5.5,0,0,1,430.75,193.36Z" style="fill:#92E3A9"></path><path d="M416.44,208.71a.47.47,0,0,1-.28-.09c-27.42-18.46-63.35-21.71-105-25.47-27.12-2.45-57.84-5.23-91-12.59C136.55,152,89.77,91,89.31,90.38a.5.5,0,1,1,.8-.6c.46.61,47,61.36,130.27,79.81,33.13,7.34,63.83,10.11,90.91,12.56,41.74,3.78,77.8,7,105.42,25.64a.5.5,0,0,1,.14.69A.49.49,0,0,1,416.44,208.71Z" style="fill:#92E3A9"></path><path d="M402.13,224.05a.46.46,0,0,1-.28-.08c-27.42-18.46-63.35-21.71-105-25.47-27.11-2.46-57.84-5.23-91-12.59C122.24,167.39,75.46,106.34,75,105.73a.5.5,0,0,1,.8-.6c.46.61,47,61.36,130.27,79.81,33.13,7.34,63.83,10.11,90.91,12.56,41.74,3.77,77.8,7,105.43,25.64a.5.5,0,0,1,.13.69A.48.48,0,0,1,402.13,224.05Z" style="fill:#92E3A9"></path><path d="M152.61,88.52s-4.53,1.57-3,2.61,6.61,14.43,5.56,16.17-4.34-4-6.26-2.09.87,6.61,3.83,6.26,4.35-3.3,3.65-7S153.3,95,153,93.74s1.05-1.91,3.13-.7,5.74-.87,6.79-3.13.17-6.08.17-6.08.69,1.91-2.78,2.78S153.82,88,152.61,88.52Z" style="fill:#92E3A9"></path><path d="M132.49,148.66s-4.52,1.57-3,2.61,6.61,14.43,5.57,16.17-4.35-4-6.26-2.09.87,6.61,3.82,6.26,4.35-3.3,3.66-7-3.13-9.56-3.48-10.78,1-1.91,3.13-.7,5.74-.87,6.78-3.13.17-6.08.17-6.08.7,1.91-2.78,2.78S133.71,148.14,132.49,148.66Z" style="fill:#92E3A9"></path><path d="M409.12,164.28a67.48,67.48,0,0,1-6.59-3.83c-3.2-2.14-5-1.11-4.54.31s-2.29,11.49-6.39,16.81-3.72-.75-6.81-1.8-4.76,2-2.39,5.54,7.73,2.47,8.44.3,5.73-11.68,7.22-14,2.59-2.19,5.29.5a10.11,10.11,0,0,0,9.12,3s-5.53,10.6-7.22,14-3.09,7.7-5.58,7.61-5.3-5-7.28-2,3.93,8.11,7.11,6.66,5.13-8.11,7.49-12.71,9.19-16.72,8.78-18.45S412.18,166.27,409.12,164.28Z" style="fill:#92E3A9"></path><path d="M345,184.67a48,48,0,0,1-4.66-2.71c-2.27-1.51-3.51-.78-3.21.22s-1.62,8.13-4.52,11.89-2.63-.53-4.82-1.27-3.36,1.42-1.68,3.92,5.46,1.74,6,.21a92.13,92.13,0,0,1,5.1-9.88c1.06-1.62,1.84-1.55,3.75.35a7.17,7.17,0,0,0,6.45,2.11s-3.91,7.49-5.11,9.88-2.18,5.45-4,5.39-3.74-3.56-5.14-1.4,2.78,5.74,5,4.71,3.63-5.73,5.29-9,6.5-11.82,6.21-13S347.19,186.08,345,184.67Z" style="fill:#92E3A9"></path><path d="M360.78,199.34a37.27,37.27,0,0,1-3.51-2c-1.71-1.14-2.65-.59-2.42.16s-1.22,6.13-3.41,9-2-.41-3.63-1-2.54,1.07-1.27,2.95,4.12,1.32,4.49.16a71.6,71.6,0,0,1,3.85-7.45c.8-1.22,1.39-1.17,2.83.27a5.38,5.38,0,0,0,4.86,1.59s-2.95,5.65-3.85,7.45-1.65,4.11-3,4.06-2.82-2.68-3.88-1.05,2.1,4.32,3.79,3.55,2.74-4.32,4-6.78,4.91-8.91,4.69-9.84S362.41,200.4,360.78,199.34Z" style="fill:#92E3A9"></path><path d="M129.64,88.4A49.18,49.18,0,0,1,125,85.7c-2.27-1.52-3.51-.79-3.21.21s-1.62,8.13-4.52,11.9-2.63-.54-4.82-1.28-3.36,1.43-1.68,3.92,5.46,1.74,6,.21a92.13,92.13,0,0,1,5.1-9.88c1.06-1.62,1.84-1.55,3.75.35A7.13,7.13,0,0,0,132,93.24s-3.92,7.49-5.11,9.88-2.18,5.45-4,5.39-3.74-3.56-5.14-1.4,2.78,5.74,5,4.71,3.63-5.73,5.29-9,6.5-11.83,6.21-13S131.8,89.81,129.64,88.4Z" style="fill:#92E3A9"></path><path d="M448.62,285.19a.49.49,0,0,1-.28-.09c-31.27-21.06-72.25-24.76-119.7-29.05-30.91-2.8-65.94-6-103.78-14.35-49.81-11-87.71-35.29-110.73-53.69-24.95-19.95-38.3-37.53-38.43-37.7a.5.5,0,1,1,.8-.6c.13.17,13.42,17.67,38.28,37.54,22.94,18.33,60.69,42.49,110.29,53.48,37.78,8.37,72.78,11.53,103.66,14.32,47.59,4.31,88.68,8,120.17,29.22a.51.51,0,0,1,.14.7A.52.52,0,0,1,448.62,285.19Z" style="fill:#92E3A9"></path><path d="M432.31,302.69a.47.47,0,0,1-.28-.09c-31.28-21.06-72.26-24.76-119.7-29.05-30.91-2.8-65.95-6-103.79-14.35-49.8-11-87.7-35.29-110.72-53.69-24.95-19.95-38.3-37.53-38.44-37.7a.51.51,0,0,1,.1-.7.5.5,0,0,1,.7.1c.13.17,13.43,17.67,38.29,37.54,22.93,18.33,60.69,42.49,110.29,53.48,37.78,8.37,72.78,11.53,103.66,14.32,47.58,4.31,88.68,8,120.16,29.22a.5.5,0,0,1-.27.92Z" style="fill:#92E3A9"></path><path d="M416,320.19a.49.49,0,0,1-.28-.09C384.44,299,343.46,295.34,296,291.05c-30.91-2.8-65.94-6-103.78-14.35-49.81-11-87.71-35.29-110.73-53.69-25-19.95-38.3-37.53-38.43-37.7a.5.5,0,1,1,.8-.6c.13.17,13.42,17.67,38.28,37.54,22.94,18.33,60.69,42.49,110.29,53.48,37.78,8.37,72.78,11.53,103.66,14.32,47.59,4.31,88.68,8,120.17,29.22a.51.51,0,0,1,.14.7A.52.52,0,0,1,416,320.19Z" style="fill:#92E3A9"></path><path d="M399.68,337.69a.47.47,0,0,1-.28-.09c-31.28-21.06-72.26-24.76-119.7-29.05-30.91-2.8-65.95-6-103.79-14.35-49.8-11-87.7-35.29-110.72-53.69-24.95-19.95-38.3-37.53-38.44-37.7a.51.51,0,0,1,.1-.7.5.5,0,0,1,.7.1c.13.17,13.43,17.67,38.29,37.54,22.93,18.33,60.69,42.49,110.29,53.48,37.78,8.37,72.78,11.53,103.66,14.32,47.58,4.31,88.68,8,120.17,29.22a.51.51,0,0,1,.13.7A.5.5,0,0,1,399.68,337.69Z" style="fill:#92E3A9"></path><path d="M127.59,243.33s-5.16,1.79-3.38,3,7.54,16.45,6.35,18.44-5-4.56-7.14-2.38,1,7.53,4.36,7.13,5-3.76,4.17-7.93-3.57-10.9-4-12.29,1.19-2.18,3.57-.79,6.54-1,7.73-3.57.2-6.94.2-6.94.79,2.18-3.17,3.17S129,242.74,127.59,243.33Z" style="fill:#92E3A9"></path><path d="M356.51,245.12s-5.15,1.79-3.37,3,7.54,16.45,6.35,18.43-5-4.56-7.14-2.38,1,7.54,4.36,7.14,5-3.77,4.16-7.93-3.57-10.9-4-12.29,1.19-2.18,3.57-.79,6.54-1,7.73-3.57.2-6.94.2-6.94.79,2.18-3.17,3.17S357.9,244.53,356.51,245.12Z" style="fill:#92E3A9"></path><path d="M332.12,295.55s-5.16,1.79-3.37,3S336.28,315,335.09,317s-4.95-4.56-7.14-2.38,1,7.53,4.37,7.13,4.95-3.76,4.16-7.93-3.57-10.9-4-12.29,1.19-2.18,3.57-.79,6.55-1,7.74-3.57.19-6.94.19-6.94.8,2.18-3.17,3.17S333.51,295,332.12,295.55Z" style="fill:#92E3A9"></path><path d="M101.41,213.32A79,79,0,0,1,93.9,209c-3.66-2.45-5.66-1.28-5.18.35s-2.61,13.09-7.28,19.17-4.25-.87-7.77-2.06-5.43,2.3-2.72,6.32,8.81,2.81,9.61.34,6.54-13.31,8.23-15.93,3-2.5,6,.57a11.52,11.52,0,0,0,10.39,3.4S98.92,233.2,97,237.05s-3.52,8.79-6.37,8.69-6-5.74-8.3-2.26,4.49,9.25,8.11,7.6,5.86-9.24,8.54-14.49,10.48-19.06,10-21S104.89,215.59,101.41,213.32Z" style="fill:#92E3A9"></path><path d="M393.72,270.92a56,56,0,0,1-5.31-3.09c-2.58-1.73-4-.9-3.66.25s-1.84,9.26-5.15,13.55-3-.61-5.49-1.45-3.84,1.63-1.93,4.47,6.24,2,6.8.24a105.34,105.34,0,0,1,5.82-11.27c1.2-1.84,2.1-1.76,4.28.41a8.14,8.14,0,0,0,7.35,2.4S392,285,390.61,287.7s-2.49,6.21-4.51,6.14-4.27-4.06-5.87-1.59,3.18,6.54,5.74,5.37,4.14-6.54,6-10.25,7.41-13.48,7.08-14.88S396.19,272.52,393.72,270.92Z" style="fill:#92E3A9"></path><path d="M411.68,287.64a40.66,40.66,0,0,1-4-2.33c-1.95-1.3-3-.67-2.76.19s-1.39,7-3.88,10.22-2.27-.46-4.14-1.1-2.9,1.23-1.45,3.37,4.69,1.5,5.12.19a80.13,80.13,0,0,1,4.39-8.5c.9-1.39,1.58-1.33,3.22.31a6.15,6.15,0,0,0,5.54,1.81s-3.36,6.44-4.39,8.49-1.87,4.69-3.39,4.63-3.22-3.06-4.42-1.2,2.39,4.93,4.32,4,3.12-4.93,4.55-7.73,5.59-10.16,5.34-11.21S413.54,288.85,411.68,287.64Z" style="fill:#92E3A9"></path><path d="M89,183.1A54.6,54.6,0,0,1,83.69,180c-2.59-1.73-4-.9-3.67.25s-1.84,9.26-5.14,13.56-3-.62-5.5-1.46-3.84,1.63-1.92,4.47,6.23,2,6.8.24a102.51,102.51,0,0,1,5.82-11.26c1.2-1.85,2.09-1.77,4.27.4a8.14,8.14,0,0,0,7.35,2.4s-4.46,8.54-5.82,11.27-2.49,6.21-4.51,6.14-4.26-4.06-5.86-1.59,3.17,6.54,5.73,5.37,4.14-6.53,6-10.25,7.41-13.48,7.08-14.87S91.46,184.7,89,183.1Z" style="fill:#92E3A9"></path></g></svg>