<?xml version="1.0" standalone="no"?><svg xmlns="http://www.w3.org/2000/svg" viewBox="0 0 1440 320"><path fill="#0099ff" fill-opacity="1" d="M0,64L17.1,74.7C34.3,85,69,107,103,112C137.1,117,171,107,206,122.7C240,139,274,181,309,213.3C342.9,245,377,267,411,240C445.7,213,480,139,514,101.3C548.6,64,583,64,617,85.3C651.4,107,686,149,720,176C754.3,203,789,213,823,202.7C857.1,192,891,160,926,165.3C960,171,994,213,1029,224C1062.9,235,1097,213,1131,224C1165.7,235,1200,277,1234,261.3C1268.6,245,1303,171,1337,128C1371.4,85,1406,75,1423,69.3L1440,64L1440,320L1422.9,320C1405.7,320,1371,320,1337,320C1302.9,320,1269,320,1234,320C1200,320,1166,320,1131,320C1097.1,320,1063,320,1029,320C994.3,320,960,320,926,320C891.4,320,857,320,823,320C788.6,320,754,320,720,320C685.7,320,651,320,617,320C582.9,320,549,320,514,320C480,320,446,320,411,320C377.1,320,343,320,309,320C274.3,320,240,320,206,320C171.4,320,137,320,103,320C68.6,320,34,320,17,320L0,320Z"></path></svg>